<svg width="15" height="26" viewBox="0 0 15 26" fill="none" xmlns="http://www.w3.org/2000/svg">
<path d="M0.865893 13.9749L13.0568 25.5905C13.2602 25.7844 13.5305 25.8926 13.8115 25.8926C14.0925 25.8926 14.3628 25.7844 14.5662 25.5905L14.5793 25.5774C14.6783 25.4834 14.7571 25.3702 14.8109 25.2448C14.8648 25.1194 14.8925 24.9843 14.8925 24.8478C14.8925 24.7114 14.8648 24.5763 14.8109 24.4509C14.7571 24.3255 14.6783 24.2123 14.5793 24.1183L3.09933 13.1808L14.5793 2.24768C14.6783 2.15368 14.7571 2.04053 14.8109 1.91511C14.8648 1.78969 14.8925 1.65464 14.8925 1.51815C14.8925 1.38167 14.8648 1.24661 14.8109 1.12119C14.7571 0.995775 14.6783 0.882624 14.5793 0.78862L14.5662 0.775494C14.3628 0.581583 14.0925 0.47341 13.8115 0.47341C13.5305 0.47341 13.2602 0.581583 13.0568 0.775494L0.865893 12.3911C0.758679 12.4933 0.673325 12.6161 0.615004 12.7522C0.556684 12.8884 0.526611 13.0349 0.526611 13.183C0.526611 13.3311 0.556684 13.4776 0.615004 13.6137C0.673325 13.7499 0.758679 13.8727 0.865893 13.9749Z" fill="black"/>
</svg>
