<svg width="34" height="34" viewBox="0 0 34 34" fill="none" xmlns="http://www.w3.org/2000/svg">
<path d="M17.5015 24.0267L29.1171 11.8357C29.311 11.6323 29.4192 11.3621 29.4192 11.0811C29.4192 10.8 29.311 10.5298 29.1171 10.3264L29.104 10.3132C29.01 10.2143 28.8968 10.1355 28.7714 10.0817C28.646 10.0278 28.5109 10.0001 28.3744 10.0001C28.238 10.0001 28.1029 10.0278 27.9775 10.0817C27.8521 10.1355 27.7389 10.2143 27.6449 10.3132L16.7074 21.7932L5.77429 10.3132C5.68029 10.2143 5.56714 10.1355 5.44172 10.0817C5.31631 10.0278 5.18125 10.0001 5.04476 10.0001C4.90828 10.0001 4.77322 10.0278 4.6478 10.0817C4.52239 10.1355 4.40924 10.2143 4.31523 10.3132L4.3021 10.3264C4.10819 10.5298 4.00002 10.8 4.00002 11.0811C4.00002 11.3621 4.10819 11.6323 4.3021 11.8357L15.9177 24.0267C16.0199 24.1339 16.1427 24.2193 16.2789 24.2776C16.415 24.3359 16.5615 24.366 16.7096 24.366C16.8577 24.366 17.0042 24.3359 17.1404 24.2776C17.2765 24.2193 17.3993 24.1339 17.5015 24.0267Z" fill="white"/>
</svg>
