<?xml version="1.0" standalone="no"?>
<!DOCTYPE svg PUBLIC "-//W3C//DTD SVG 20010904//EN"
 "http://www.w3.org/TR/2001/REC-SVG-20010904/DTD/svg10.dtd">
<svg version="1.0" xmlns="http://www.w3.org/2000/svg"
 width="752.000000pt" height="752.000000pt" viewBox="0 0 752.000000 752.000000"
 preserveAspectRatio="xMidYMid meet">

<g transform="translate(0.000000,752.000000) scale(0.100000,-0.100000)"
fill="#000000" stroke="none">
<path d="M4125 5745 c-5 -2 -22 -6 -38 -9 -72 -16 -145 -127 -135 -204 3 -22
106 -240 242 -510 l236 -472 -670 0 -670 0 232 463 c213 425 231 466 231 513
0 65 -32 124 -86 161 -34 24 -50 28 -108 28 -58 0 -73 -4 -111 -30 -41 -28
-57 -58 -319 -580 l-277 -550 -558 -5 c-543 -5 -560 -6 -599 -26 -45 -24 -93
-91 -101 -145 -9 -56 13 -119 60 -165 34 -35 52 -44 104 -54 34 -7 62 -15 62
-17 0 -38 296 -1747 311 -1798 66 -220 234 -407 444 -494 151 -63 102 -61
1388 -61 1264 0 1233 -1 1367 53 129 52 264 157 344 266 44 60 100 171 120
241 12 40 306 1764 306 1793 0 2 28 10 62 17 52 10 70 19 104 54 47 46 69 109
60 165 -8 54 -56 121 -101 145 -39 20 -54 21 -598 24 l-557 2 -274 548 c-151
302 -286 562 -300 579 -37 44 -133 82 -171 68z m-1707 -1661 c-36 -77 -45
-137 -28 -188 44 -134 215 -179 318 -83 13 12 60 93 103 180 l79 157 870 0
870 0 79 -159 c50 -100 91 -168 110 -184 96 -80 241 -50 299 63 31 60 26 124
-16 213 l-31 67 215 0 216 0 -6 -27 c-3 -16 -62 -374 -131 -798 -69 -423 -130
-795 -136 -825 -25 -125 -106 -226 -227 -283 l-67 -32 -1170 0 -1170 0 -58 23
c-79 32 -168 116 -207 195 -27 56 -43 142 -165 877 -74 448 -138 827 -141 843
l-6 27 216 0 215 0 -31 -66z"/>
<path d="M2905 3747 c-51 -21 -80 -45 -106 -89 l-24 -43 -3 -420 c-3 -448 0
-484 44 -543 94 -123 304 -81 344 68 7 26 10 189 8 467 -3 412 -4 430 -24 468
-30 58 -91 98 -156 101 -29 2 -66 -2 -83 -9z"/>
<path d="M3699 3751 c-46 -15 -79 -43 -107 -90 l-27 -46 0 -452 0 -451 30 -44
c84 -119 246 -119 330 0 l30 44 0 451 0 452 -27 47 c-15 25 -44 56 -63 68 -38
24 -124 35 -166 21z"/>
<path d="M4462 3739 c-47 -24 -83 -66 -101 -118 -15 -45 -15 -850 -1 -903 41
-148 251 -188 344 -66 44 59 47 95 44 543 l-3 420 -24 42 c-54 93 -164 129
-259 82z"/>
</g>
</svg>
