<svg width="50" height="50" viewBox="0 0 50 50" fill="none" xmlns="http://www.w3.org/2000/svg">
<path d="M13.1896 16.6666H36.8125C37.4132 16.6666 38.0069 16.7964 38.5528 17.0473C39.0987 17.2981 39.5839 17.664 39.9751 18.12C40.3663 18.5759 40.6543 19.111 40.8193 19.6887C40.9844 20.2663 41.0225 20.8728 40.9312 21.4666L38.3166 38.45C38.0897 39.9259 37.3418 41.2718 36.2083 42.244C35.0748 43.2161 33.6308 43.7504 32.1375 43.75H17.8625C16.3696 43.7499 14.926 43.2154 13.793 42.2433C12.6599 41.2711 11.9123 39.9255 11.6854 38.45L9.07081 21.4666C8.9795 20.8728 9.01767 20.2663 9.1827 19.6887C9.34774 19.111 9.63573 18.5759 10.027 18.12C10.4182 17.664 10.9034 17.2981 11.4492 17.0473C11.9951 16.7964 12.5888 16.6666 13.1896 16.6666Z" stroke="white" stroke-width="4" stroke-linecap="round" stroke-linejoin="round"/>
<path d="M18.75 22.9167V12.5C18.75 10.8424 19.4085 9.25269 20.5806 8.08058C21.7527 6.90848 23.3424 6.25 25 6.25C26.6576 6.25 28.2473 6.90848 29.4194 8.08058C30.5915 9.25269 31.25 10.8424 31.25 12.5V22.9167" stroke="white" stroke-width="4" stroke-linecap="round" stroke-linejoin="round"/>
</svg>
