<?xml version="1.0" standalone="no"?>
<!DOCTYPE svg PUBLIC "-//W3C//DTD SVG 20010904//EN"
 "http://www.w3.org/TR/2001/REC-SVG-20010904/DTD/svg10.dtd">
<svg version="1.0" xmlns="http://www.w3.org/2000/svg"
 width="752.000000pt" height="752.000000pt" viewBox="0 0 752.000000 752.000000"
 preserveAspectRatio="xMidYMid meet">

<g transform="translate(0.000000,752.000000) scale(0.100000,-0.100000)"
fill="#ffffff" stroke="none">
<path d="M3585 5974 c-311 -33 -543 -97 -802 -224 -444 -217 -796 -569 -1014
-1015 -159 -326 -223 -606 -223 -975 0 -369 64 -649 223 -975 322 -658 938
-1108 1671 -1222 158 -24 481 -24 640 0 730 112 1349 564 1670 1220 160 328
224 608 224 977 0 369 -64 649 -224 977 -210 429 -554 780 -976 995 -229 118
-437 185 -689 224 -97 15 -419 26 -500 18z m500 -317 c206 -39 373 -95 545
-183 479 -244 836 -678 980 -1192 57 -200 65 -266 64 -527 0 -224 -2 -249 -27
-370 -16 -71 -44 -177 -63 -235 -31 -97 -155 -360 -188 -404 -14 -17 -20 -14
-111 54 -364 274 -755 434 -1210 496 -154 21 -476 21 -630 0 -451 -63 -848
-223 -1189 -481 -43 -33 -87 -66 -98 -74 -24 -18 -29 -12 -107 139 -94 182
-154 363 -193 580 -18 101 -18 499 0 600 77 429 259 780 558 1072 150 147 273
236 455 331 187 99 401 170 589 196 41 6 86 13 100 15 59 10 449 -3 525 -17z
m28 -2666 c244 -43 398 -92 612 -196 148 -72 348 -197 434 -272 l43 -38 -93
-92 c-167 -163 -300 -258 -504 -359 -150 -74 -296 -123 -468 -160 -167 -35
-457 -44 -631 -20 -350 49 -679 190 -946 404 -80 64 -240 224 -234 233 3 5 40
36 83 68 344 262 717 407 1176 455 99 10 414 -3 528 -23z"/>
<path d="M3635 5380 c-366 -57 -652 -322 -742 -686 -22 -93 -22 -295 0 -388
67 -269 231 -478 472 -597 222 -110 446 -126 679 -48 223 74 401 230 507 444
71 144 91 231 92 390 1 255 -79 451 -258 630 -125 124 -260 200 -426 240 -82
19 -246 27 -324 15z m247 -301 c29 -6 91 -29 138 -51 200 -96 330 -304 330
-528 0 -97 -16 -162 -62 -260 -96 -200 -304 -330 -528 -330 -97 0 -162 16
-258 62 -202 96 -332 303 -332 528 0 97 16 162 62 260 73 152 225 276 390 316
67 16 191 17 260 3z"/>
</g>
</svg>
