<svg width="60" height="40" viewBox="0 0 60 40" fill="none" xmlns="http://www.w3.org/2000/svg">
<g clip-path="url(#clip0_25_548)">
<path d="M56 40H4C2.93913 40 1.92172 39.5785 1.17157 38.8284C0.421427 38.0782 0 37.0608 0 36L0 19.1733H2.88167L3.53167 17.6H4.98667L5.635 19.1666H11.305V17.975L11.8117 19.175H14.755L15.2617 17.955V19.1716H29.35V16.5983H29.6167C29.8067 16.605 29.8617 16.6216 29.8617 16.9383V19.175H37.15V18.5766C37.895 18.955 38.7733 19.1766 39.705 19.1766L39.8633 19.175H39.855H42.9217L43.5783 17.6083H45.0333L45.675 19.175H51.585V17.685L52.4783 19.175H57.205V9.33496H52.5267V10.4966L51.8717 9.33496H47.0617V10.4966L46.46 9.33496H39.965C38.9809 9.28523 38.0005 9.48775 37.1167 9.9233L37.1517 9.9083V9.33496H32.6717V9.9083C32.1294 9.48088 31.4445 9.27643 30.7567 9.33663H30.7667H14.395L13.2967 11.8783L12.1683 9.33663H7.01167V10.4983L6.44333 9.33663H2.04333L0.005 14.0033V4.0033C0.005 2.94243 0.426427 1.92501 1.17657 1.17487C1.92672 0.424723 2.94413 0.0032959 4.005 0.0032959H56.005C57.0659 0.0032959 58.0833 0.424723 58.8334 1.17487C59.5836 1.92501 60.005 2.94243 60.005 4.0033V21.47H56.8833C56.8333 21.4666 56.7733 21.4666 56.715 21.4666C55.9917 21.4666 55.32 21.6833 54.76 22.055L54.7733 22.0466V21.47H50.1567C49.4354 21.4301 48.7218 21.6351 48.1317 22.0516L48.1417 22.045V21.4683H39.8983V22.045C39.2235 21.6644 38.4614 21.4657 37.6867 21.4683H37.6217H37.625H32.1867V22.045C31.4762 21.5898 30.6331 21.3873 29.7933 21.47L29.8083 21.4683H23.7233L22.33 22.975L21.0267 21.4683H11.9367V31.315H20.8567L22.2917 29.785L23.6433 31.315H29.1417V29.01H29.9083C30.6455 29.0388 31.3807 28.9157 32.0683 28.6483L32.0317 28.6616V31.3183H36.565V28.7533H36.7833C37.06 28.7533 37.0883 28.7633 37.0883 29.0433V31.32H50.865L51.0333 31.3233C51.8233 31.3233 52.56 31.0866 53.1733 30.6816L53.1583 30.69V31.32H57.5283L57.7367 31.3233C58.555 31.3233 59.3333 31.155 60.04 30.85L60.0017 30.865V36.0016C60.0017 37.0625 59.5802 38.0799 58.8301 38.8301C58.0799 39.5802 57.0625 40.0016 56.0017 40.0016L56 40ZM35.175 29.935H33.4783V22.8766H37.3717C38.0748 22.8115 38.7829 22.9297 39.4267 23.22L39.4 23.21C39.9217 23.4966 40.27 24.0433 40.27 24.67L40.2667 24.7816V24.7766L40.2683 24.84C40.2683 25.65 39.78 26.3466 39.08 26.65L39.0667 26.655C39.4017 26.775 39.6817 26.98 39.89 27.245L39.8933 27.2483C40.1286 27.6378 40.2272 28.0947 40.1733 28.5466L40.175 28.5366V29.9333H38.4817V29.05C38.5618 28.569 38.4653 28.0753 38.21 27.66L38.215 27.6683C38.0391 27.5347 37.8379 27.4383 37.6236 27.3847C37.4093 27.3311 37.1864 27.3216 36.9683 27.3566L36.9783 27.355H35.175V29.9333V29.935ZM35.175 24.335V25.92H37.225C37.5145 25.9467 37.8058 25.8949 38.0683 25.77L38.0583 25.775C38.1656 25.7057 38.2538 25.6107 38.3149 25.4986C38.3761 25.3866 38.4082 25.261 38.4083 25.1333L38.4067 25.095C38.4149 24.9676 38.3869 24.8421 38.3258 24.73C38.2648 24.6179 38.1732 24.5254 38.0617 24.4633L38.0583 24.4616C37.8054 24.3485 37.5275 24.3026 37.2517 24.3283H37.2583L35.175 24.335ZM20.1333 29.9333H13.455V22.8766H20.2383L22.3133 25.19L24.4583 22.8766H29.8467C31.76 22.8766 32.69 23.6383 32.69 25.2016C32.69 26.7933 31.7283 27.5666 29.7567 27.5666H27.6483V29.9316H24.37L22.2933 27.6L20.135 29.9333H20.1333ZM25.9683 23.6333L23.3783 26.4166L25.9683 29.29V23.6333ZM15.1367 27.0583V28.4616H19.2833L21.2 26.3916L19.3567 24.335H15.135V25.6183H18.8383V27.0566L15.1367 27.0583ZM27.6483 24.3366V26.1333H29.8267C30.4933 26.1333 30.8767 25.7933 30.8767 25.2C30.8767 24.6333 30.52 24.335 29.845 24.335L27.6483 24.3366ZM57.7117 29.9366H54.455V28.42H57.6983C57.941 28.4534 58.1871 28.3899 58.3833 28.2433L58.3817 28.245C58.4443 28.1869 58.4942 28.1165 58.5284 28.0382C58.5625 27.9599 58.5801 27.8754 58.58 27.79V27.7633C58.5801 27.6789 58.5619 27.5956 58.5264 27.519C58.491 27.4424 58.4394 27.3745 58.375 27.32C58.2025 27.1953 57.9898 27.1394 57.7783 27.1633H57.7817L57.47 27.1533C55.9467 27.1133 54.2217 27.0666 54.2217 24.9783C54.2217 23.9616 54.8583 22.8766 56.64 22.8766H60.0017V24.38H56.9267C56.6891 24.3534 56.4492 24.4011 56.24 24.5166L56.2467 24.5133C56.1644 24.5675 56.0982 24.6428 56.0551 24.7313C56.012 24.8199 55.9935 24.9185 56.0017 25.0166V25.015V25.0333C56.0017 25.1456 56.0371 25.255 56.1029 25.346C56.1688 25.437 56.2617 25.5049 56.3683 25.54L56.3717 25.5416C56.583 25.6068 56.8042 25.6339 57.025 25.6216H57.02L57.935 25.645C58.6247 25.5761 59.3138 25.7815 59.8533 26.2166L59.8483 26.2133C59.8983 26.2533 59.9417 26.2966 59.98 26.345L59.9817 26.3466L60.0017 29.0333C59.7214 29.3608 59.3648 29.6144 58.9635 29.7716C58.5621 29.9288 58.1282 29.9849 57.7 29.935L57.7117 29.9366ZM51.13 29.9366H47.8433V28.42H51.1133C51.358 28.452 51.6057 28.3887 51.805 28.2433L51.8017 28.245C51.8639 28.1867 51.9135 28.1162 51.9473 28.0379C51.9811 27.9596 51.9985 27.8752 51.9983 27.79V27.7733C51.9982 27.6875 51.9799 27.6027 51.9446 27.5246C51.9092 27.4464 51.8577 27.3767 51.7933 27.32C51.6178 27.1952 51.4024 27.1394 51.1883 27.1633H51.1917L50.8817 27.1533C49.3633 27.1133 47.64 27.0666 47.64 24.9783C47.64 23.9616 48.2733 22.8766 50.0517 22.8766H53.4317V24.38H50.3383C50.1024 24.3537 49.8642 24.4014 49.6567 24.5166L49.6633 24.5133C49.5758 24.5735 49.5061 24.6563 49.4617 24.7529C49.4173 24.8494 49.3999 24.9562 49.4111 25.0619C49.4224 25.1676 49.462 25.2682 49.5258 25.3533C49.5895 25.4383 49.675 25.5045 49.7733 25.545L49.7767 25.5466C49.9907 25.6123 50.2148 25.6394 50.4383 25.6266H50.4333L51.3417 25.65C52.035 25.5832 52.7272 25.7888 53.2717 26.2233L53.2667 26.2183C53.4498 26.4202 53.5891 26.6579 53.6757 26.9164C53.7624 27.1748 53.7945 27.4485 53.77 27.72V27.7116C53.775 29.1833 52.8833 29.9333 51.125 29.9333L51.13 29.9366ZM46.8333 29.9366H41.2V22.875H46.8283V24.3333H42.8833V25.6166H46.7367V27.055H42.8833V28.4583L46.8333 28.465V29.9316V29.9366ZM50.1167 17.7933H46.6817L46.025 16.22H42.5217L41.885 17.7933H39.9117C39.0255 17.84 38.1528 17.5608 37.4583 17.0083L37.4667 17.0133C37.1367 16.6492 36.8863 16.2203 36.7313 15.7539C36.5764 15.2876 36.5203 14.7942 36.5667 14.305L36.565 14.3183C36.5221 13.8201 36.5809 13.3184 36.7379 12.8436C36.8949 12.3689 37.1468 11.931 37.4783 11.5566L37.475 11.56C37.825 11.2539 38.2342 11.0232 38.6772 10.8821C39.1202 10.7411 39.5875 10.6927 40.05 10.74L40.0367 10.7383H41.67V12.2433H40.07C39.8359 12.2131 39.598 12.235 39.3733 12.3073C39.1486 12.3796 38.9426 12.5006 38.77 12.6616L38.7717 12.66C38.4153 13.1163 38.2423 13.6893 38.2867 14.2666V14.2583C38.2336 14.8514 38.4002 15.4434 38.755 15.9216L38.75 15.915C39.0813 16.1857 39.5054 16.3161 39.9317 16.2783H39.925H40.6817L43.0667 10.7283H45.6L48.455 17.395V10.7283H51.0233L53.9867 15.6416V10.7283H55.72V17.7816H53.3133L50.1133 12.485V17.7816L50.1167 17.7933ZM44.285 11.93L43.1233 14.7433H45.4517L44.285 11.93ZM27.9533 17.79H26.2667V10.7333H30.1467C30.8549 10.6598 31.5699 10.7802 32.215 11.0816L32.19 11.0716C32.4494 11.2151 32.6656 11.4254 32.8163 11.6806C32.9669 11.9359 33.0465 12.2269 33.0467 12.5233L33.0433 12.64V12.635V12.6866C33.0435 13.0716 32.9325 13.4483 32.7238 13.7718C32.5151 14.0952 32.2175 14.3515 31.8667 14.51L31.8533 14.515C32.1883 14.6416 32.47 14.845 32.685 15.105L32.6883 15.1083C32.9261 15.4993 33.0243 15.9593 32.9667 16.4133L32.9683 16.4033V17.7883H31.2667L31.26 16.8983V16.765C31.3206 16.3298 31.2243 15.8873 30.9883 15.5166L30.9933 15.525C30.8168 15.3953 30.6163 15.3019 30.4035 15.2501C30.1907 15.1983 29.9697 15.1892 29.7533 15.2233L29.7633 15.2216H27.955V17.7883L27.9533 17.79ZM27.9533 12.2016V13.7683H30C30.2891 13.7997 30.5812 13.7476 30.8417 13.6183L30.8333 13.6216C30.9401 13.5567 31.0284 13.4655 31.0897 13.3566C31.151 13.2477 31.1832 13.1249 31.1833 13L31.1817 12.9533C31.1901 12.8267 31.1614 12.702 31.0989 12.5915C31.0364 12.481 30.9429 12.3913 30.83 12.3333L30.8267 12.3316C30.573 12.2228 30.2968 12.1771 30.0217 12.1983H30.0267L27.9533 12.2016ZM10.0933 17.79H6.66667L6.01833 16.2166H2.505L1.85167 17.79H0.0183333L3.04 10.7333H5.545L8.41333 17.4116V10.7333H11.165L13.3717 15.5183L15.4 10.7333H18.2083V17.7866H16.475L16.4717 12.2666L14.0267 17.7883H12.5467L10.095 12.2583V17.7883L10.0933 17.79ZM4.25333 11.93L3.105 14.7433H5.40833L4.25333 11.93ZM35.7333 17.7883H34.0133V10.7333H35.735V17.7866L35.7333 17.7883ZM25.09 17.7883H19.4667V10.7333H25.1V12.2H21.1533V13.4716H25.005V14.92H21.15V16.33H25.0967V17.7866L25.09 17.7883Z" fill="#0068BF"/>
</g>
<defs>
<clipPath id="clip0_25_548">
<rect width="60" height="40" fill="white"/>
</clipPath>
</defs>
</svg>
