<svg width="15" height="26" viewBox="0 0 15 26" fill="none" xmlns="http://www.w3.org/2000/svg">
<path d="M14.5533 12.3911L2.36236 0.775472C2.15895 0.581562 1.8887 0.473389 1.60767 0.473389C1.32664 0.473389 1.0564 0.581562 0.852986 0.775472L0.83986 0.788597C0.740909 0.882601 0.662116 0.995753 0.608274 1.12117C0.554431 1.24658 0.526665 1.38164 0.526665 1.51813C0.526665 1.65461 0.554431 1.78967 0.608274 1.91509C0.662116 2.0405 0.740909 2.15366 0.83986 2.24766L12.3199 13.1852L0.83986 24.1183C0.740909 24.2123 0.662116 24.3254 0.608274 24.4509C0.554431 24.5763 0.526665 24.7113 0.526665 24.8478C0.526665 24.9843 0.554431 25.1194 0.608274 25.2448C0.662116 25.3702 0.740909 25.4833 0.83986 25.5773L0.852986 25.5905C1.0564 25.7844 1.32664 25.8926 1.60767 25.8926C1.8887 25.8926 2.15895 25.7844 2.36236 25.5905L14.5533 13.9748C14.6605 13.8727 14.7459 13.7498 14.8042 13.6137C14.8625 13.4776 14.8926 13.3311 14.8926 13.183C14.8926 13.0349 14.8625 12.8883 14.8042 12.7522C14.7459 12.6161 14.6605 12.4932 14.5533 12.3911Z" fill="white"/>
</svg>
