<svg width="34" height="34" viewBox="0 0 34 34" fill="none" xmlns="http://www.w3.org/2000/svg">
<path d="M15.9177 10.3393L4.30208 22.5302C4.10817 22.7336 4 23.0039 4 23.2849C4 23.5659 4.10817 23.8362 4.30208 24.0396L4.31521 24.0527C4.40921 24.1517 4.52236 24.2305 4.64778 24.2843C4.7732 24.3381 4.90825 24.3659 5.04474 24.3659C5.18122 24.3659 5.31628 24.3381 5.4417 24.2843C5.56712 24.2305 5.68027 24.1517 5.77427 24.0527L16.7118 12.5727L27.6449 24.0527C27.7389 24.1517 27.8521 24.2305 27.9775 24.2843C28.1029 24.3381 28.2379 24.3659 28.3744 24.3659C28.5109 24.3659 28.646 24.3381 28.7714 24.2843C28.8968 24.2305 29.01 24.1517 29.104 24.0527L29.1171 24.0396C29.311 23.8362 29.4192 23.5659 29.4192 23.2849C29.4192 23.0039 29.311 22.7336 29.1171 22.5302L17.5015 10.3393C17.3993 10.2321 17.2765 10.1467 17.1403 10.0884C17.0042 10.0301 16.8577 10 16.7096 10C16.5615 10 16.415 10.0301 16.2788 10.0884C16.1427 10.1467 16.0199 10.2321 15.9177 10.3393Z" fill="white"/>
</svg>
