<?xml version="1.0" standalone="no"?>
<!DOCTYPE svg PUBLIC "-//W3C//DTD SVG 20010904//EN"
 "http://www.w3.org/TR/2001/REC-SVG-20010904/DTD/svg10.dtd">
<svg version="1.0" xmlns="http://www.w3.org/2000/svg"
 width="752.000000pt" height="752.000000pt" viewBox="0 0 752.000000 752.000000"
 preserveAspectRatio="xMidYMid meet">

<g transform="translate(0.000000,752.000000) scale(0.100000,-0.100000)"
fill="#000000" stroke="none">
<path d="M3428 5995 c-60 -22 -106 -63 -132 -118 -21 -44 -29 -90 -51 -307
-14 -140 -27 -255 -28 -256 -1 0 -29 -11 -62 -24 -139 -54 -385 -199 -439
-259 -11 -12 -24 -21 -30 -21 -6 0 -117 47 -246 105 -215 96 -240 105 -295
105 -75 0 -131 -25 -174 -76 -52 -63 -300 -501 -311 -551 -18 -77 9 -160 69
-219 16 -16 116 -90 221 -164 l191 -135 -6 -45 c-26 -207 -26 -331 0 -540 l5
-45 -141 -100 c-264 -186 -285 -204 -312 -253 -32 -61 -40 -109 -27 -165 10
-49 258 -488 309 -548 43 -52 104 -79 177 -79 54 0 81 10 294 105 129 58 240
105 246 105 6 0 19 -9 30 -21 54 -60 300 -205 439 -259 33 -13 61 -24 62 -24
1 -1 14 -116 28 -256 29 -284 43 -333 110 -384 68 -53 94 -56 405 -56 310 0
339 4 406 55 65 50 80 103 109 385 14 140 27 255 28 256 1 0 29 11 62 24 139
54 385 199 439 259 11 12 25 21 32 21 6 0 113 -46 235 -102 197 -89 232 -102
291 -106 81 -5 141 19 189 77 51 60 299 499 309 548 18 77 -10 163 -69 218
-16 16 -114 90 -218 164 -173 126 -188 139 -187 166 0 17 6 87 13 157 9 99 9
157 0 255 -7 71 -13 141 -13 158 -1 27 14 40 187 166 104 74 202 148 218 164
59 55 87 141 69 218 -11 50 -259 488 -311 551 -47 56 -106 79 -188 74 -58 -4
-94 -17 -290 -106 -122 -56 -229 -102 -235 -102 -7 0 -21 10 -32 21 -57 63
-384 251 -477 274 -15 4 -27 10 -27 14 0 3 -11 119 -26 256 -22 214 -29 257
-50 303 -28 58 -69 94 -133 117 -60 21 -606 21 -663 0z m462 -1416 c398 -63
700 -417 700 -819 0 -453 -377 -830 -830 -830 -402 0 -756 302 -819 700 -89
551 398 1038 949 949z"/>
</g>
</svg>
