<svg width="34" height="34" viewBox="0 0 34 34" fill="none" xmlns="http://www.w3.org/2000/svg">
<path d="M9.86405 0.407654H23.8641C29.1974 0.407654 33.5307 4.74099 33.5307 10.0743V24.0743C33.5307 26.6381 32.5123 29.0968 30.6994 30.9097C28.8866 32.7225 26.4278 33.741 23.8641 33.741H9.86405C4.53072 33.741 0.197388 29.4077 0.197388 24.0743V10.0743C0.197388 7.51056 1.21584 5.05181 3.02869 3.23896C4.84154 1.4261 7.30029 0.407654 9.86405 0.407654ZM9.53072 3.74099C7.93942 3.74099 6.4133 4.37313 5.28808 5.49835C4.16286 6.62356 3.53072 8.14969 3.53072 9.74099V24.4077C3.53072 27.7243 6.21405 30.4077 9.53072 30.4077H24.1974C25.7887 30.4077 27.3148 29.7755 28.44 28.6503C29.5652 27.5251 30.1974 25.999 30.1974 24.4077V9.74099C30.1974 6.42432 27.5141 3.74099 24.1974 3.74099H9.53072ZM25.6141 6.24099C26.1666 6.24099 26.6965 6.46048 27.0872 6.85118C27.4779 7.24188 27.6974 7.77179 27.6974 8.32432C27.6974 8.87685 27.4779 9.40676 27.0872 9.79746C26.6965 10.1882 26.1666 10.4077 25.6141 10.4077C25.0615 10.4077 24.5316 10.1882 24.1409 9.79746C23.7502 9.40676 23.5307 8.87685 23.5307 8.32432C23.5307 7.77179 23.7502 7.24188 24.1409 6.85118C24.5316 6.46048 25.0615 6.24099 25.6141 6.24099ZM16.8641 8.74099C19.0742 8.74099 21.1938 9.61896 22.7566 11.1818C24.3194 12.7446 25.1974 14.8642 25.1974 17.0743C25.1974 19.2845 24.3194 21.4041 22.7566 22.9669C21.1938 24.5297 19.0742 25.4077 16.8641 25.4077C14.6539 25.4077 12.5343 24.5297 10.9715 22.9669C9.40869 21.4041 8.53072 19.2845 8.53072 17.0743C8.53072 14.8642 9.40869 12.7446 10.9715 11.1818C12.5343 9.61896 14.6539 8.74099 16.8641 8.74099ZM16.8641 12.0743C15.538 12.0743 14.2662 12.6011 13.3285 13.5388C12.3908 14.4765 11.8641 15.7482 11.8641 17.0743C11.8641 18.4004 12.3908 19.6722 13.3285 20.6099C14.2662 21.5475 15.538 22.0743 16.8641 22.0743C18.1901 22.0743 19.4619 21.5475 20.3996 20.6099C21.3373 19.6722 21.8641 18.4004 21.8641 17.0743C21.8641 15.7482 21.3373 14.4765 20.3996 13.5388C19.4619 12.6011 18.1901 12.0743 16.8641 12.0743Z" fill="white"/>
</svg>
