<svg width="31" height="31" viewBox="0 0 31 31" fill="none" xmlns="http://www.w3.org/2000/svg">
<path d="M27.5307 0.0743408C28.4147 0.0743408 29.2626 0.42553 29.8877 1.05065C30.5128 1.67577 30.864 2.52362 30.864 3.40767V26.741C30.864 27.6251 30.5128 28.4729 29.8877 29.098C29.2626 29.7232 28.4147 30.0743 27.5307 30.0743H4.19735C3.31329 30.0743 2.46545 29.7232 1.84032 29.098C1.2152 28.4729 0.864014 27.6251 0.864014 26.741V3.40767C0.864014 2.52362 1.2152 1.67577 1.84032 1.05065C2.46545 0.42553 3.31329 0.0743408 4.19735 0.0743408H27.5307ZM26.6973 25.9077V17.0743C26.6973 15.6333 26.1249 14.2513 25.106 13.2324C24.087 12.2134 22.705 11.641 21.264 11.641C19.8473 11.641 18.1973 12.5077 17.3973 13.8077V11.9577H12.7473V25.9077H17.3973V17.691C17.3973 16.4077 18.4307 15.3577 19.714 15.3577C20.3329 15.3577 20.9263 15.6035 21.3639 16.0411C21.8015 16.4787 22.0473 17.0722 22.0473 17.691V25.9077H26.6973ZM7.33068 9.34101C8.07329 9.34101 8.78548 9.04601 9.31058 8.52091C9.83568 7.9958 10.1307 7.28361 10.1307 6.54101C10.1307 4.99101 8.88068 3.72434 7.33068 3.72434C6.58365 3.72434 5.86722 4.0211 5.339 4.54932C4.81077 5.07755 4.51401 5.79398 4.51401 6.54101C4.51401 8.09101 5.78068 9.34101 7.33068 9.34101ZM9.64735 25.9077V11.9577H5.03068V25.9077H9.64735Z" fill="white"/>
</svg>
