<svg width="52" height="40" viewBox="0 0 52 40" fill="none" xmlns="http://www.w3.org/2000/svg">
<g clip-path="url(#clip0_25_546)">
<path d="M9.35475 39.8012V37.1538C9.35475 36.1387 8.73686 35.477 7.67777 35.477C7.14832 35.477 6.57465 35.6535 6.17746 36.2271C5.86872 35.7417 5.42751 35.477 4.7656 35.477C4.3242 35.477 3.88319 35.6092 3.53003 36.0947V35.5652H2.60339V39.8012H3.53003V37.4625C3.53003 36.7125 3.92721 36.3594 4.5451 36.3594C5.16259 36.3594 5.47174 36.7566 5.47174 37.4625V39.8012H6.39837V37.4625C6.39837 36.7125 6.83937 36.3594 7.41304 36.3594C8.03093 36.3594 8.33968 36.7566 8.33968 37.4625V39.8012H9.35475ZM23.0776 35.5652H21.5775V34.2856H20.6508V35.5652H19.8124V36.4034H20.6506V38.3451C20.6506 39.316 21.0478 39.8894 22.1069 39.8894C22.5041 39.8894 22.9451 39.7572 23.2542 39.5807L22.9893 38.7863C22.7246 38.9628 22.4159 39.007 22.1952 39.007C21.7539 39.007 21.5775 38.7423 21.5775 38.3009V36.4034H23.0776V35.5652ZM30.932 35.4768C30.4026 35.4768 30.0496 35.7417 29.8289 36.0947V35.5652H28.9023V39.8012H29.8289V37.4185C29.8289 36.7125 30.1377 36.3154 30.7113 36.3154C30.8878 36.3154 31.1085 36.3596 31.285 36.4036L31.5497 35.5212C31.3732 35.477 31.1085 35.477 30.932 35.477V35.4768ZM19.0623 35.9182C18.6209 35.6092 18.0032 35.477 17.3413 35.477C16.2824 35.477 15.5765 36.0064 15.5765 36.8448C15.5765 37.5509 16.1059 37.9479 17.0325 38.0804L17.4737 38.1246C17.9592 38.2126 18.2239 38.3451 18.2239 38.5658C18.2239 38.8746 17.8709 39.0953 17.253 39.0953C16.6354 39.0953 16.1499 38.8746 15.841 38.6541L15.3998 39.36C15.8852 39.7129 16.5471 39.8894 17.2088 39.8894C18.4444 39.8894 19.1505 39.316 19.1505 38.5216C19.1505 37.7714 18.5769 37.3743 17.6942 37.242L17.253 37.1978C16.8559 37.1536 16.5471 37.0655 16.5471 36.8008C16.5471 36.4918 16.8559 36.3154 17.3413 36.3154C17.8709 36.3154 18.4004 36.5359 18.6651 36.6683L19.0623 35.9182ZM43.6844 35.477C43.1548 35.477 42.8018 35.7417 42.5811 36.0947V35.5652H41.6544V39.8012H42.5811V37.4185C42.5811 36.7125 42.89 36.3154 43.4635 36.3154C43.6402 36.3154 43.8609 36.3596 44.0374 36.4036L44.3021 35.5212C44.1256 35.477 43.8609 35.477 43.6844 35.477ZM31.8587 37.6832C31.8587 38.9628 32.7411 39.8894 34.1091 39.8894C34.7268 39.8894 35.168 39.7572 35.6092 39.4042L35.168 38.6541C34.8151 38.9188 34.4621 39.051 34.0649 39.051C33.3148 39.051 32.7853 38.5216 32.7853 37.6832C32.7853 36.889 33.3148 36.3594 34.0649 36.3154C34.4621 36.3154 34.8151 36.4476 35.168 36.7125L35.6092 35.9624C35.168 35.6092 34.7268 35.477 34.1091 35.477C32.7411 35.477 31.8587 36.4036 31.8587 37.6832ZM40.4191 37.6832V35.5652H39.4924V36.0947C39.1835 35.6977 38.7423 35.477 38.1686 35.477C36.9773 35.477 36.0506 36.4036 36.0506 37.6832C36.0506 38.9628 36.9773 39.8894 38.1686 39.8894C38.7863 39.8894 39.2277 39.6689 39.4924 39.2717V39.8012H40.4191V37.6832ZM37.0213 37.6832C37.0213 36.9331 37.5067 36.3154 38.3009 36.3154C39.051 36.3154 39.5807 36.889 39.5807 37.6832C39.5807 38.4334 39.051 39.051 38.3009 39.051C37.5067 39.0068 37.0213 38.4334 37.0213 37.6832ZM25.9459 35.477C24.7103 35.477 23.8277 36.3594 23.8277 37.6832C23.8277 39.007 24.7101 39.8894 25.9899 39.8894C26.6076 39.8894 27.2255 39.713 27.7109 39.316L27.2695 38.6541C26.9166 38.9188 26.4754 39.0953 26.0341 39.0953C25.4605 39.0953 24.8868 38.8305 24.7543 38.0802H27.8874V37.7274C27.9316 36.3594 27.1375 35.477 25.9459 35.477ZM25.9459 36.2711C26.5194 36.2711 26.9168 36.6243 27.0048 37.2862H24.7986C24.8868 36.7125 25.284 36.2711 25.9459 36.2711ZM48.9353 37.6832V33.8884H48.0086V36.0947C47.6997 35.6977 47.2585 35.477 46.6848 35.477C45.4934 35.477 44.5668 36.4036 44.5668 37.6832C44.5668 38.9628 45.4934 39.8894 46.6848 39.8894C47.3027 39.8894 47.7439 39.6689 48.0086 39.2717V39.8012H48.9353V37.6832ZM45.5377 37.6832C45.5377 36.9331 46.0229 36.3154 46.8173 36.3154C47.5674 36.3154 48.0969 36.889 48.0969 37.6832C48.0969 38.4334 47.5674 39.051 46.8173 39.051C46.0229 39.0068 45.5377 38.4334 45.5377 37.6832ZM14.5614 37.6832V35.5652H13.6348V36.0947C13.3258 35.6977 12.8846 35.477 12.3109 35.477C11.1196 35.477 10.1929 36.4036 10.1929 37.6832C10.1929 38.9628 11.1196 39.8894 12.3109 39.8894C12.9288 39.8894 13.37 39.6689 13.6348 39.2717V39.8012H14.5614V37.6832ZM11.1196 37.6832C11.1196 36.9331 11.605 36.3154 12.3992 36.3154C13.1493 36.3154 13.679 36.889 13.679 37.6832C13.679 38.4334 13.1493 39.051 12.3992 39.051C11.605 39.0068 11.1196 38.4334 11.1196 37.6832Z" fill="black"/>
<path d="M18.7534 3.39758H32.6529V28.3727H18.7534V3.39758Z" fill="#FF5F00"/>
<path d="M19.636 15.8852C19.636 10.8109 22.0187 6.30995 25.681 3.39759C22.9895 1.2796 19.592 0 15.8854 0C7.10412 0 0 7.10412 0 15.8852C0 24.6661 7.10412 31.7705 15.8852 31.7705C19.5918 31.7705 22.9893 30.4909 25.681 28.3727C22.0187 25.5045 19.636 20.9596 19.636 15.8852Z" fill="#EB001B"/>
<path d="M51.4062 15.8852C51.4062 24.6661 44.3021 31.7705 35.521 31.7705C31.8145 31.7705 28.4169 30.4909 25.7252 28.3727C29.4318 25.4605 31.7704 20.9596 31.7704 15.8852C31.7704 10.8109 29.3875 6.30995 25.7252 3.39759C28.4167 1.2796 31.8145 0 35.521 0C44.3021 0 51.4062 7.14834 51.4062 15.8852Z" fill="#F79E1B"/>
</g>
<defs>
<clipPath id="clip0_25_546">
<rect width="51.4573" height="40" fill="white"/>
</clipPath>
</defs>
</svg>
