<svg width="112" height="36" viewBox="0 0 112 36" fill="none" xmlns="http://www.w3.org/2000/svg">
<g clip-path="url(#clip0_25_551)">
<path d="M57.4252 11.4627C57.3619 16.4576 61.8766 19.2448 65.2775 20.9021C68.7717 22.6023 69.9454 23.6927 69.9315 25.2134C69.9055 27.5404 67.1443 28.5675 64.5606 28.6074C60.0528 28.6772 57.4317 27.3903 55.348 26.417L53.7241 34.0156C55.8147 34.9789 59.6858 35.8191 63.7001 35.856C73.1229 35.856 79.2876 31.2046 79.321 23.9929C79.3579 14.8402 66.6612 14.3336 66.7479 10.2426C66.7778 9.00213 67.9615 7.67837 70.5552 7.34179C71.8391 7.17177 75.3831 7.04165 79.4013 8.89196L80.9783 1.54015C78.8174 0.753357 76.0402 -4.19617e-05 72.5825 -4.19617e-05C63.7135 -4.19617e-05 57.4755 4.71466 57.4252 11.4627ZM96.1321 0.633213C94.4115 0.633213 92.9615 1.63687 92.3144 3.17707L78.8543 35.316H88.2703L90.144 30.1376H101.65L102.737 35.316H111.036L103.794 0.633213H96.1321ZM97.4494 10.0023L100.167 23.0261H92.7247L97.4494 10.0023ZM46.0089 0.633644L38.5868 35.3155H47.5595L54.9781 0.632778H46.0089M32.7353 0.632778L23.3961 24.2397L19.6183 4.16772C19.175 1.92704 17.4244 0.633213 15.4804 0.633213H0.213831L0 1.64034C3.13417 2.32044 6.69513 3.41735 8.85253 4.59104C10.1728 5.30801 10.5493 5.93475 10.983 7.63846L18.1384 35.316H27.6202L42.1573 0.633213L32.7353 0.632778Z" fill="url(#paint0_linear_25_551)"/>
</g>
<defs>
<linearGradient id="paint0_linear_25_551" x1="5104.78" y1="107.783" x2="5208.56" y2="-3574.68" gradientUnits="userSpaceOnUse">
<stop stop-color="#222357"/>
<stop offset="1" stop-color="#254AA5"/>
</linearGradient>
<clipPath id="clip0_25_551">
<rect width="111.036" height="36" fill="white"/>
</clipPath>
</defs>
</svg>
